HIERARCHY
ROOT Hips
{
	OFFSET 0.000000 0.000000 0.000000
	CHANNELS 6 Xposition Yposition Zposition Yrotation Xrotation Zrotation
	JOINT Chest
	{
		OFFSET 0.000000 -0.009281 11.569106
		CHANNELS 3 Yrotation Xrotation Zrotation
		JOINT Chest2
		{
			OFFSET -0.000000 0.016865 9.269641
			CHANNELS 3 Yrotation Xrotation Zrotation
			JOINT Chest3
			{
				OFFSET -0.000000 0.000001 8.374491
				CHANNELS 3 Yrotation Xrotation Zrotation
				JOINT Chest4
				{
					OFFSET -0.000000 0.000001 8.374493
					CHANNELS 3 Yrotation Xrotation Zrotation
					JOINT Neck
					{
						OFFSET -0.000000 0.000002 12.152554
						CHANNELS 3 Yrotation Xrotation Zrotation
						JOINT Head
						{
							OFFSET -0.000000 0.040101 7.802319
							CHANNELS 3 Yrotation Xrotation Zrotation
							End Site
							{
								OFFSET -0.000000 0.020947 14.853096
							}
						}
					}
					JOINT RightCollar
					{
						OFFSET 2.894404 0.000001 6.791374
						CHANNELS 3 Yrotation Xrotation Zrotation
						JOINT RightShoulder
						{
							OFFSET 13.574684 0.000001 0.000000
							CHANNELS 3 Yrotation Xrotation Zrotation
							JOINT RightElbow
							{
								OFFSET 23.923903 0.000002 0.000000
								CHANNELS 3 Yrotation Xrotation Zrotation
								JOINT RightWrist
								{
									OFFSET 19.846718 0.012767 0.000000
									CHANNELS 3 Yrotation Xrotation Zrotation
									End Site
									{
										OFFSET 14.973145 0.000001 0.000000
									}
								}
							}
						}
					}
					JOINT LeftCollar
					{
						OFFSET -2.894404 0.000001 6.791374
						CHANNELS 3 Yrotation Xrotation Zrotation
						JOINT LeftShoulder
						{
							OFFSET -13.574684 -0.000001 0.000000
							CHANNELS 3 Yrotation Xrotation Zrotation
							JOINT LeftElbow
							{
								OFFSET -23.923903 -0.000002 0.000000
								CHANNELS 3 Yrotation Xrotation Zrotation
								JOINT LeftWrist
								{
									OFFSET -19.846718 0.012763 0.000000
									CHANNELS 3 Yrotation Xrotation Zrotation
									End Site
									{
										OFFSET -14.973145 -0.000001 0.000000
									}
								}
							}
						}
					}
				}
			}
		}
	}
	JOINT RightHip
	{
		OFFSET 9.469263 0.004643 0.045487
		CHANNELS 3 Yrotation Xrotation Zrotation
		JOINT RightKnee
		{
			OFFSET 0.000000 0.002661 -40.478676
			CHANNELS 3 Yrotation Xrotation Zrotation
			JOINT RightAnkle
			{
				OFFSET 0.000000 0.049106 -35.224068
				CHANNELS 3 Yrotation Xrotation Zrotation
				JOINT RightToe
				{
					OFFSET -0.000001 12.539529 -6.151390
					CHANNELS 3 Yrotation Xrotation Zrotation
					End Site
					{
						OFFSET -0.000001 5.044994 -1.291870
					}
				}
			}
		}
	}
	JOINT LeftHip
	{
		OFFSET -9.469263 0.004641 0.045487
		CHANNELS 3 Yrotation Xrotation Zrotation
		JOINT LeftKnee
		{
			OFFSET 0.000000 0.002661 -40.478676
			CHANNELS 3 Yrotation Xrotation Zrotation
			JOINT LeftAnkle
			{
				OFFSET 0.000000 0.049106 -35.224068
				CHANNELS 3 Yrotation Xrotation Zrotation
				JOINT LeftToe
				{
					OFFSET -0.000001 12.539529 -6.151390
					CHANNELS 3 Yrotation Xrotation Zrotation
					End Site
					{
						OFFSET -0.000001 5.044994 -1.291870
					}
				}
			}
		}
	}
}
MOTION
Frames: 12
Frame Time: 0.016667
29.921171 5.870952 82.641479 -4.145667 0.355760 -116.733315 -1.584698 -5.043650 3.041301 -0.778639 -2.169514 1.265579 -0.778639 -2.169514 1.265577 -0.579417 -1.628758 0.946307 0.875923 -13.152655 -3.621239 0.181828 11.718862 -6.509807 9.711764 5.425247 -1.548476 42.520076 -14.943175 -14.257989 -24.917754 -61.061304 85.230454 -42.157055 38.460747 51.007463 -7.843699 5.410492 -6.638498 -40.562345 -10.521770 19.347160 -3.531126 -64.947941 -59.698305 30.366779 16.994588 -74.853375 -6.446433 3.794451 -10.724524 7.578135 -21.909744 -19.482956 -5.525729 8.095886 3.046513 4.566678 5.452175 0.254384 1.641941 -1.914304 12.548214 1.127952 -4.187160 3.859418 -0.631728 2.098020 4.277931 -2.027798 0.224074 -0.001020 
30.920456 5.947377 82.752342 -4.044651 0.256481 -116.967946 -1.408571 -4.918590 3.039622 -0.780686 -2.167505 1.278132 -0.780686 -2.167506 1.278136 -0.580914 -1.627274 0.955719 0.790717 -13.134025 -3.549416 0.048685 11.751835 -6.409066 9.728836 5.534140 -1.547418 42.415017 -15.102581 -14.239128 -24.623426 -61.234278 85.078851 -42.170022 38.435855 50.968101 -7.795444 5.355446 -6.619257 -40.571091 -10.426958 19.368106 -3.448187 -64.947640 -59.777590 30.310788 17.012989 -74.902518 -6.154577 3.247820 -13.371402 7.393724 -21.410445 -20.223620 -6.114035 8.506534 1.682292 5.353594 5.321312 0.294936 1.708162 -2.553341 13.259606 0.700767 -4.224951 4.560152 -0.314024 1.826578 5.045365 -1.733221 0.954811 -0.073685 
31.837360 6.220972 82.752541 -4.162858 0.548506 -117.346584 -1.658235 -4.866031 3.140341 -0.807990 -2.199489 1.327040 -0.807990 -2.199489 1.327036 -0.601143 -1.651383 0.992249 0.723755 -13.041474 -3.489114 -0.058143 11.922473 -6.325314 9.684162 5.346987 -1.547922 42.470157 -15.164965 -13.994486 -24.400395 -61.279788 84.914776 -42.250857 38.442876 50.897170 -7.761958 5.394422 -6.641495 -40.486179 -10.398611 19.318405 -3.360638 -64.883853 -59.870085 30.258059 17.052658 -75.052099 -6.485184 2.706919 -15.136240 6.419671 -21.132868 -19.471203 -6.085051 8.558677 0.511752 6.254245 5.328862 0.371914 1.020181 -2.989626 12.729597 0.299402 -4.461875 4.963892 -0.170969 2.202256 6.534175 -1.133508 1.121939 -0.097479 
32.565674 6.763292 82.728607 -4.233364 0.937837 -117.717067 -1.933418 -4.808152 3.249054 -0.851592 -2.226246 1.382044 -0.851592 -2.226245 1.382047 -0.633581 -1.671623 1.033306 0.658370 -12.915781 -3.431626 -0.164732 12.154631 -6.247516 9.619159 4.962438 -1.546582 42.619926 -15.145297 -13.606069 -24.096578 -61.290450 84.624568 -42.399328 38.518544 50.801670 -7.748278 5.458038 -6.673401 -40.300486 -10.385929 19.169185 -3.124010 -64.832798 -60.110022 30.208694 17.112235 -75.251541 -7.302463 2.671218 -15.213113 5.564850 -21.408422 -16.898371 -5.063051 8.710966 -2.166064 4.964125 3.863320 0.255986 0.291296 -2.925108 11.060270 -0.096484 -5.141966 6.093605 -0.305552 2.643681 7.747778 -0.460472 1.293418 -0.096390 
32.881672 7.388946 82.762428 -4.002887 1.220696 -118.076868 -2.005356 -4.607933 3.382763 -0.866134 -2.206903 1.425471 -0.866134 -2.206903 1.425474 -0.644376 -1.657212 1.065850 0.567735 -12.819739 -3.362176 -0.312918 12.330998 -6.156473 9.669422 4.712444 -1.423821 42.736272 -15.179815 -13.427576 -23.548959 -61.303536 84.086404 -42.546860 38.760173 50.770695 -7.738126 5.477849 -6.682311 -40.142009 -10.370386 18.936773 -2.810025 -64.781551 -60.336026 30.130130 17.025271 -75.401204 -8.411880 3.248172 -13.542465 6.727464 -21.162426 -14.728104 -4.979250 8.439949 -5.794114 3.559598 2.626200 0.219867 -0.171671 -2.113036 9.159486 -0.426514 -6.252731 7.707682 -0.580018 3.013097 8.351032 0.139140 1.447344 -0.046962 
32.675095 8.122153 82.834908 -3.792005 1.315049 -118.336060 -1.938585 -4.463282 3.473198 -0.829849 -2.161159 1.441494 -0.829849 -2.161159 1.441494 -0.617217 -1.622840 1.078060 0.437867 -12.820092 -3.267078 -0.520370 12.327585 -6.029473 9.782138 4.821044 -1.333234 42.797668 -15.405066 -13.628001 -23.251292 -61.320072 83.777994 -42.738491 39.144422 50.772515 -7.755324 5.522252 -6.614578 -40.122123 -10.441507 18.670947 -2.514498 -64.754660 -60.419259 29.965433 16.790466 -75.428627 -8.957164 3.559161 -11.923162 7.543749 -20.811260 -15.265136 -4.742205 8.521264 -6.573029 2.653340 1.715237 0.254023 -0.263387 -0.968015 7.594732 -0.784120 -7.405349 8.588352 -0.572757 2.914641 8.677850 0.361136 1.568348 -0.009449 
32.778694 8.692470 82.899666 -3.815213 1.397846 -118.205918 -1.926488 -4.478760 3.253095 -0.774508 -2.107569 1.425564 -0.774508 -2.107570 1.425568 -0.575902 -1.582497 1.066384 0.300027 -12.856478 -3.153237 -0.733479 12.257685 -5.868779 9.800790 4.936094 -1.339962 42.812643 -15.408961 -13.959366 -23.516369 -61.378423 84.058680 -42.877882 39.452474 50.775978 -7.727860 5.450989 -6.521709 -40.185756 -10.499730 18.399766 -2.274992 -64.804466 -60.574981 29.876135 16.444196 -75.359403 -9.180506 4.056883 -11.525717 7.036522 -21.113875 -17.299372 -4.005523 8.805713 -4.688373 2.211188 1.017704 0.146020 -0.507746 -0.333786 6.325820 -0.647433 -8.204871 7.484346 -0.414053 2.707407 9.138197 0.168269 1.614320 -0.033509 
32.749573 9.379061 82.941521 -3.809941 1.462631 -118.132425 -1.931917 -4.461421 3.152438 -0.710247 -2.068847 1.390337 -0.710248 -2.068847 1.390339 -0.527923 -1.553264 1.040232 0.175979 -12.874163 -3.026510 -0.915998 12.223715 -5.678560 9.818929 5.140707 -1.296331 42.774558 -15.215722 -14.420334 -23.804794 -61.471744 84.390341 -42.814214 39.518488 50.844881 -7.783746 5.355434 -6.547595 -40.126808 -10.606116 18.297966 -2.061551 -64.889973 -60.890884 30.013077 16.156742 -75.260912 -9.369029 4.387708 -10.905664 6.455309 -21.336529 -18.167905 -3.550690 8.905986 -3.911978 2.077866 0.585608 0.104319 -0.933266 0.514759 5.060184 0.349217 -8.728137 4.755453 -0.591841 2.139725 9.738112 -0.087534 1.515098 -0.055712 
32.667671 9.926167 82.969597 -3.730903 1.426813 -118.100364 -1.866940 -4.462417 3.132375 -0.652560 -2.055775 1.353316 -0.652560 -2.055775 1.353319 -0.484815 -1.543287 1.012685 0.086859 -12.840431 -2.904848 -1.036744 12.286712 -5.485517 9.810248 5.143077 -1.232418 42.730183 -14.862673 -14.646330 -23.948325 -61.476395 84.531152 -42.665699 39.460117 50.947651 -7.848206 5.298406 -6.556608 -40.030871 -10.835490 18.168798 -2.000886 -64.972297 -61.060074 30.224181 16.157432 -75.122034 -9.290095 4.931951 -8.692907 6.508672 -21.308624 -18.089563 -3.964572 8.587587 -5.653024 2.138712 0.306631 0.169591 -1.152912 1.355039 3.416738 1.432640 -8.825927 0.980246 -0.839062 1.252532 10.167086 -0.376577 1.376075 -0.044757 
32.274319 10.358372 82.996552 -3.623909 1.313130 -118.066759 -1.770911 -4.471164 3.079465 -0.604736 -2.065657 1.337919 -0.604736 -2.065657 1.337922 -0.448981 -1.550578 1.001287 0.047551 -12.786566 -2.796741 -1.069317 12.388895 -5.298353 9.755604 5.005517 -1.244214 42.714589 -14.655988 -14.594357 -24.035605 -61.353417 84.574046 -42.554087 39.412309 51.036000 -7.867079 5.176887 -6.578069 -40.041298 -11.024216 18.029623 -2.257514 -64.926706 -60.827575 30.399744 16.322098 -75.002253 -8.839125 5.441658 -5.988498 6.414322 -21.048061 -17.957129 -4.224767 8.211055 -7.031429 1.995823 0.046549 0.224147 -1.098578 1.738680 1.089330 2.334894 -8.484184 -2.955570 -1.107563 0.465507 10.343142 -0.751485 1.219950 -0.047429 
32.218624 10.677701 83.020966 -3.597904 1.219822 -118.096935 -1.806192 -4.535306 3.025620 -0.568772 -2.089477 1.352244 -0.568772 -2.089478 1.352242 -0.421909 -1.568377 1.012125 0.069007 -12.726636 -2.703506 -0.992665 12.504452 -5.114383 9.739450 5.000295 -1.255557 42.680752 -14.734151 -14.464947 -24.101429 -61.171598 84.632061 -42.542165 39.447098 51.083620 -7.808382 5.071145 -6.632391 -40.212995 -11.074423 18.014088 -2.516260 -64.734634 -60.528768 30.540426 16.406521 -74.918726 -8.543730 5.472318 -4.367687 5.420515 -20.548293 -16.363721 -3.014581 8.173857 -6.046312 1.089264 -0.296835 0.249062 -0.646053 2.099511 -1.947860 2.901145 -7.842678 -6.218249 -1.529798 -0.554873 10.030919 -1.222389 1.117971 -0.233973 
31.876858 10.971449 83.042038 -3.391346 1.258260 -117.870747 -1.853531 -4.354270 2.655848 -0.550075 -2.097503 1.373079 -0.550075 -2.097503 1.373080 -0.407798 -1.574374 1.027807 0.128591 -12.722250 -2.614269 -0.842547 12.518183 -4.920042 9.708987 4.932185 -1.259868 42.584693 -14.918793 -14.203115 -24.172139 -61.027733 84.760558 -42.654777 39.532756 51.053946 -7.755485 5.030398 -6.622639 -40.434296 -10.930203 18.111985 -2.575501 -64.586399 -60.411247 30.556330 16.266966 -74.839974 -7.732888 5.541023 -4.128087 3.277832 -19.707123 -11.718807 -1.543236 8.442086 -4.990723 0.010020 -0.971456 0.220426 -0.347789 2.271252 -5.721822 3.451939 -6.974060 -8.350322 -2.071462 -1.248230 8.895110 -1.483169 1.076262 -0.278028 
